<svg xmlns="http://www.w3.org/2000/svg" 
xmlns:xlink="http://www.w3.org/1999/xlink"
aria-hidden="true" role="img" 
class="iconify iconify--carbon" width="1.1em" height="1.1em" preserveAspectRatio="xMidYMid meet" viewBox="0 0 32 32"><path d="M20 21h-8a2 2 0 0 1-2-2v-2a2 2 0 0 1 2-2h8a2 2 0 0 1 2 2v2a2 2 0 0 1-2 2zm-8-4v2h8v-2z" fill="currentColor"></path><path d="M28 4H4a2 2 0 0 0-2 2v4a2 2 0 0 0 2 2v16a2 2 0 0 0 2 2h20a2 2 0 0 0 2-2V12a2 2 0 0 0 2-2V6a2 2 0 0 0-2-2zm-2 24H6V12h20zm2-18H4V6h24v4z" 
fill="currentColor"></path></svg>