<svg xmlns="http://www.w3.org/2000/svg"
 xmlns:xlink="http://www.w3.org/1999/xlink" 
 aria-hidden="true" role="img"
  class="iconify iconify--fluent" 
  width="1.2em" height="1.2em" preserveAspectRatio="xMidYMid meet" viewBox="0 0 20 20"><g fill="none"><path d="M5.92 2.228a.5.5 0 0 0-.84.544L9.405 9.43L7.48 12.39a3 3 0 1 0 .779.636L10 10.348l1.74 2.68a3 3 0 1 0 .779-.636L5.92 2.227zM14 17a2 2 0 1 1 0-4a2 2 0 0 1 0 4zM4 15a2 2 0 1 1 4 0a2 2 0 0 1-4 0z" fill="currentColor"></path>
<path d="M11.192 8.511l-.596-.918l3.485-5.365a.5.5 0 0 1 .838.544l-3.727 5.74z" fill="currentColor"></path></g></svg>