<svg xmlns="http://www.w3.org/2000/svg" 
aria-hidden="true" role="img" className="iconify iconify--jam" 
width="32" height="32" preserveAspectRatio="xMidYMid meet" 
viewBox="0 0 24 24">
 <title>Coffee icon</title>
<path d="M6.232 6.976A1.5 1.5 0 0 1 6.5 4H7a2 2 0 0 1 2-2h6a2 2 0 0 1 2 2h.5a1.5 1.5 0 0 1 .268 2.976l-.448 3.805a1.991 1.991 0 0 1 .399 1.467l-.5 4a1.996 1.996 0 0 1-.693 1.279l-.422 3.59a1 1 0 0 1-.993.883H8.889a1 1 0 0 1-.993-.883l-.422-3.59a1.996 1.996 0 0 1-.693-1.279l-.5-4a1.994 1.994 0 0 1 .4-1.467l-.449-3.805zM8.25 7l.353 3h6.796l.353-3H8.249zm.517 9h6.468l.5-4H8.266l.5 4zm.777 2l.235 2h4.444l.235-2H9.543z" 
fill="currentColor"></path></svg>